<svg width="22" height="29" viewBox="0 0 22 29" fill="none" xmlns="http://www.w3.org/2000/svg">
<path d="M11.0002 28.141C10.357 28.141 9.82014 27.9552 9.38958 27.5834C8.95902 27.2116 8.74588 26.7383 8.75016 26.1635H7.52579C7.20582 26.1635 6.91215 26.0298 6.64479 25.7625C6.37743 25.4951 6.24375 25.2014 6.24375 24.8814V19.8526C4.41041 18.8291 3.0087 17.4776 2.03862 15.7981C1.06854 14.1186 0.583496 12.3248 0.583496 10.4167C0.583496 7.50428 1.59151 5.04007 3.60754 3.02404C5.62357 1.00802 8.08777 0 11.0002 0C13.9126 0 16.3768 1.00802 18.3928 3.02404C20.4088 5.04007 21.4168 7.50428 21.4168 10.4167C21.4168 12.3248 20.9338 14.1193 19.9676 15.8001C19.0015 17.481 17.5978 18.8318 15.7566 19.8526V24.8814C15.7566 25.2014 15.6229 25.4951 15.3555 25.7625C15.0882 26.0298 14.7945 26.1635 14.4745 26.1635H13.2502C13.2544 26.7383 13.0413 27.2116 12.6107 27.5834C12.1802 27.9552 11.6433 28.141 11.0002 28.141ZM7.52579 24.8814H14.4745V23.1122H7.52579V24.8814ZM7.52579 21.8301H14.4745V20.1314H7.52579V21.8301ZM7.15079 18.8494H10.3944V13.0769L6.84954 9.53204L7.69245 8.68909L11.0002 12.0288L14.3079 8.68909L15.1508 9.53204L11.606 13.0769V18.8494H14.8495C16.4307 18.1143 17.7069 16.9915 18.678 15.4808C19.6492 13.9701 20.1348 12.2821 20.1348 10.4169C20.1348 7.87188 19.2486 5.71315 17.4761 3.94071C15.7037 2.16827 13.545 1.28204 11.0002 1.28204C8.4553 1.28204 6.29665 2.16827 4.5242 3.94071C2.75176 5.71315 1.86554 7.87188 1.86554 10.4169C1.86554 12.2821 2.35112 13.9701 3.32229 15.4808C4.29343 16.9915 5.56959 18.1143 7.15079 18.8494Z" fill="black"/>
</svg>
