<svg width="69" height="57" viewBox="0 0 69 57" fill="none" xmlns="http://www.w3.org/2000/svg">
<path d="M59.6671 41.6303L55.99 37.9532C58.281 35.7608 60.0796 33.194 61.3855 30.2528C62.6915 27.3116 63.3444 24.1866 63.3444 20.8777C63.3444 17.5688 62.6915 14.4594 61.3855 11.5492C60.0796 8.63912 58.281 6.08788 55.99 3.89552L59.6671 0.119629C62.4161 2.75998 64.6005 5.87361 66.2205 9.46053C67.8404 13.0474 68.6504 16.8541 68.6504 20.8804C68.6504 24.9068 67.8401 28.7095 66.2195 32.2885C64.5989 35.8675 62.4147 38.9814 59.6671 41.6303ZM49.2153 31.1785L45.4395 27.4027C46.3402 26.5348 47.059 25.5517 47.5959 24.4535C48.1326 23.3553 48.401 22.1624 48.401 20.875C48.401 19.5464 48.1326 18.3433 47.5959 17.2656C47.059 16.1879 46.3402 15.2152 45.4395 14.3473L49.2153 10.5714C50.6385 11.8959 51.7594 13.4332 52.5779 15.1833C53.3964 16.9335 53.8057 18.8307 53.8057 20.875C53.8057 22.8781 53.3964 24.765 52.5779 26.5358C51.7594 28.3065 50.6385 29.8541 49.2153 31.1785ZM24.4124 32.1041C21.3245 32.1041 18.681 31.0045 16.4819 28.8055C14.2829 26.6065 13.1834 23.9629 13.1834 20.875C13.1834 17.787 14.2829 15.1435 16.4819 12.9445C18.681 10.7454 21.3245 9.64589 24.4124 9.64589C27.5005 9.64589 30.144 10.7454 32.343 12.9445C34.542 15.1435 35.6415 17.787 35.6415 20.875C35.6415 23.9629 34.542 26.6065 32.343 28.8055C30.144 31.0045 27.5005 32.1041 24.4124 32.1041ZM0.350098 56.5366V49.4044C0.350098 47.7838 0.763465 46.3164 1.5902 45.0022C2.41699 43.6881 3.57076 42.6711 5.05151 41.9512C7.71689 40.6227 10.699 39.5131 13.9978 38.6226C17.2966 37.7321 20.7681 37.2869 24.4124 37.2869C28.0568 37.2869 31.5284 37.7321 34.8272 38.6226C38.126 39.5131 41.1081 40.6227 43.7734 41.9512C45.2542 42.6711 46.4079 43.6881 47.2347 45.0022C48.0615 46.3164 48.4749 47.7838 48.4749 49.4044V56.5366H0.350098ZM5.16244 51.7242H43.6624V49.4044C43.6624 48.6722 43.464 48.045 43.0671 47.5226C42.6701 47.0002 42.1693 46.5744 41.5647 46.2454C39.5985 45.2417 37.1049 44.2998 34.0837 43.4196C31.0625 42.5394 27.8388 42.0992 24.4124 42.0992C20.9862 42.0992 17.7624 42.5394 14.7412 43.4196C11.7201 44.2998 9.22641 45.2417 7.26029 46.2454C6.65562 46.5744 6.15483 47.0002 5.7579 47.5226C5.36093 48.045 5.16244 48.6722 5.16244 49.4044V51.7242ZM24.4124 27.2916C26.177 27.2916 27.6876 26.6633 28.9442 25.4067C30.2008 24.1502 30.8291 22.6396 30.8291 20.875C30.8291 19.1104 30.2008 17.5998 28.9442 16.3432C27.6876 15.0866 26.177 14.4583 24.4124 14.4583C22.6479 14.4583 21.1373 15.0866 19.8807 16.3432C18.6241 17.5998 17.9958 19.1104 17.9958 20.875C17.9958 22.6396 18.6241 24.1502 19.8807 25.4067C21.1373 26.6633 22.6479 27.2916 24.4124 27.2916Z" fill="white"/>
</svg>
