<svg width="122" height="122" viewBox="0 0 122 122" fill="none" xmlns="http://www.w3.org/2000/svg">
<path d="M59.3721 1.44608C59.6011 -0.482025 62.3989 -0.482025 62.6279 1.44608L64.5471 17.6211C67.0254 38.5074 83.4926 54.9747 104.379 57.4529L120.554 59.3721C122.482 59.6011 122.482 62.3989 120.554 62.6279L104.379 64.5471C83.4926 67.0254 67.0254 83.4926 64.5471 104.379L62.6279 120.554C62.3989 122.482 59.6011 122.482 59.3721 120.554L57.4529 104.379C54.9747 83.4926 38.5074 67.0254 17.6211 64.5471L1.44608 62.6279C-0.482025 62.3989 -0.482025 59.6011 1.44608 59.3721L17.6211 57.4529C38.5074 54.9747 54.9747 38.5074 57.4529 17.6211L59.3721 1.44608Z" fill="#A1D56E"/>
</svg>
